<svg width="139.000000" height="31.000000" viewBox="0 0 139 31" fill="none" xmlns="http://www.w3.org/2000/svg" xmlns:xlink="http://www.w3.org/1999/xlink">
	<desc>
			Created with Pixso.
	</desc>
	<defs/>
	<path id="Vector" d="M74.51 5.9L78.38 5.9L78.38 30.64L74.51 30.64L74.51 5.9ZM50.14 27.35C47.39 27.35 45.25 25.7 44.45 23.31L59.36 19.43C58.72 13.44 54.35 10.32 49.85 10.32C48.49 10.31 47.16 10.6 45.92 11.17C44.69 11.73 43.6 12.56 42.71 13.59C41.13 15.45 40.27 17.92 40.27 20.62C40.27 26.99 44.73 30.93 50.21 30.93C53.88 30.93 56.73 29.26 58.26 27.06L55.53 24.77C54.41 26.41 52.23 27.35 50.14 27.35ZM49.83 13.92C52.27 13.92 54.01 15.23 54.9 17.19L44.12 19.99C44.18 16.56 46.41 13.92 49.83 13.92ZM29.9 10.32C24.74 10.32 21.49 13.63 21.49 18.61L21.49 30.64L25.35 30.64L25.35 18.61C25.35 15.63 26.8 14.01 29.89 14.01C32.98 14.01 34.41 15.62 34.41 18.61L34.41 30.64L38.28 30.64L38.28 18.61C38.28 13.63 35.05 10.32 29.9 10.32ZM9.28 30.93C7.25 30.93 5.27 30.33 3.58 29.19C1.9 28.06 0.58 26.45 -0.19 24.57C-0.97 22.69 -1.17 20.62 -0.78 18.62C-0.38 16.62 0.59 14.78 2.03 13.34C3.46 11.9 5.28 10.91 7.27 10.52C9.26 10.12 11.32 10.32 13.19 11.1C15.07 11.88 16.67 13.2 17.79 14.9C18.92 16.59 19.52 18.58 19.52 20.62C19.52 23.35 18.44 25.97 16.52 27.91C14.6 29.84 11.99 30.93 9.28 30.93ZM9.28 14.02C5.76 14.02 2.91 16.98 2.91 20.63C2.91 24.27 5.76 27.24 9.28 27.24C12.79 27.24 15.65 24.27 15.65 20.63C15.65 16.99 12.79 14.02 9.28 14.02ZM90.59 30.93C88.57 30.93 86.58 30.33 84.9 29.19C83.21 28.06 81.9 26.45 81.12 24.57C80.35 22.69 80.14 20.62 80.54 18.62C80.93 16.62 81.91 14.78 83.34 13.34C84.78 11.9 86.6 10.91 88.59 10.52C90.58 10.12 92.64 10.32 94.51 11.1C96.38 11.88 97.99 13.2 99.11 14.9C100.24 16.59 100.84 18.58 100.84 20.62C100.84 23.35 99.76 25.97 97.84 27.91C95.92 29.84 93.31 30.93 90.59 30.93ZM90.59 14.02C87.08 14.02 84.22 16.98 84.22 20.63C84.22 24.27 87.08 27.24 90.59 27.24C94.11 27.24 96.96 24.27 96.96 20.63C96.96 16.99 94.11 14.02 90.59 14.02ZM65.28 14.71L65.28 13.67C65.28 11.95 65.34 11.18 66.06 10.32C66.78 9.47 68.04 9.08 69.7 9.08C70.51 9.07 71.32 9.14 72.12 9.31L72.12 5.81C71.15 5.61 70.16 5.51 69.18 5.52C66.68 5.52 64.91 6.13 63.66 7.17C61.96 8.57 61.43 10.4 61.43 13.37L61.43 30.64L65.29 30.64L65.29 18.11L70.63 16.71L70.63 13.31L65.28 14.71ZM128.44 18.32L128.44 22.65C128.44 25.63 126.99 27.25 123.95 27.25C122.43 27.25 121.29 26.81 120.57 26.04C119.71 25.13 119.49 24.2 119.49 22.67L119.49 10.63L115.62 10.63L115.62 22.65C115.62 24.36 115.27 25.33 114.52 26.07C113.77 26.82 112.66 27.26 111.13 27.26C108.12 27.26 106.67 25.63 106.67 22.65L106.67 10.63L102.81 10.63L102.81 23.1C102.81 25.4 103.44 27.24 104.89 28.67C106.55 30.3 108.73 30.94 111.16 30.94C113.84 30.94 116.11 29.94 117.55 28.29C118.99 29.93 121.26 30.94 123.98 30.94C126.52 30.94 128.72 30.18 130.16 28.73C131.62 27.26 132.3 25.61 132.3 22.89L132.3 18.32L128.44 18.32ZM128.44 2.84L132.3 2.84L132.3 6.73L128.44 6.73L128.44 2.84ZM128.44 10.62L132.3 10.62L132.3 14.51L128.44 14.51L128.44 10.62ZM124.57 6.73L128.44 6.73L128.44 10.62L124.57 10.62L124.57 6.73ZM132.3 6.73L136.17 6.73L136.17 10.62L132.3 10.62L132.3 6.73ZM135.13 0L139 0L139 3.88L135.13 3.88L135.13 0Z" fill="#000000" fill-opacity="1.000000" fill-rule="nonzero"/>
</svg>
